<?xml version="1.0" standalone="no"?><!DOCTYPE svg PUBLIC "-//W3C//DTD SVG 1.1//EN" "http://www.w3.org/Graphics/SVG/1.1/DTD/svg11.dtd"><svg t="1704685644449" class="icon" viewBox="0 0 1671 1024" version="1.1" xmlns="http://www.w3.org/2000/svg" p-id="1652" xmlns:xlink="http://www.w3.org/1999/xlink" width="326.3671875" height="200"><path d="M829.30948997 948.705882c-116.643137 0-226.30902-45.427451-308.793725-127.912157S392.60360797 628.643137 392.60360797 512 438.03105897 285.69098 520.51576497 203.206275 712.66635297 75.294118 829.30948997 75.294118 1055.61850997 120.721569 1138.10321597 203.206275 1266.01537297 395.356863 1266.01537297 512s-45.427451 226.30902-127.912157 308.793725S945.95262697 948.705882 829.30948997 948.705882z" fill="#E2E8F5" p-id="1653"></path><path d="M829.30948997 150.588235c48.853333 0 96.175686 9.537255 140.636863 28.335687 43.018039 18.196078 81.681569 44.272941 114.923922 77.515294 33.242353 33.242353 59.319216 71.905882 77.515294 114.923921C1181.18399997 415.824314 1190.72125497 463.146667 1190.72125497 512s-9.537255 96.175686-28.335686 140.636863c-18.196078 43.018039-44.272941 81.681569-77.515294 114.923921-33.242353 33.242353-71.905882 59.319216-114.923922 77.515294C925.48517597 863.87451 878.16282397 873.411765 829.30948997 873.411765s-96.175686-9.537255-140.636863-28.335687c-43.018039-18.196078-81.681569-44.272941-114.923921-77.515294-33.242353-33.242353-59.319216-71.905882-77.515294-114.923921C477.43497997 608.175686 467.89772497 560.853333 467.89772497 512s9.537255-96.175686 28.335687-140.636863c18.196078-43.018039 44.272941-81.681569 77.515294-114.923921 33.242353-33.242353 71.905882-59.319216 114.923921-77.515294C733.13380397 160.12549 780.45615697 150.588235 829.30948997 150.588235m0-150.588235C546.54243097 0 317.30948997 229.232941 317.30948997 512S546.54243097 1024 829.30948997 1024s512-229.232941 512-512-229.232941-512-512-512z" fill="#5259F4" p-id="1654"></path></svg>