<?xml version="1.0" standalone="no"?><!DOCTYPE svg PUBLIC "-//W3C//DTD SVG 1.1//EN" "http://www.w3.org/Graphics/SVG/1.1/DTD/svg11.dtd"><svg t="1689669209702" class="icon" viewBox="0 0 1024 1024" version="1.1" xmlns="http://www.w3.org/2000/svg" p-id="2737" id="mx_n_1689669209703" width="48" height="48" data-spm-anchor-id="a313x.7781069.0.i7" xmlns:xlink="http://www.w3.org/1999/xlink"><path d="M738.1 646.9c-23.2 16.8-52 35.8-82.8 51.6 23 12.6 57.3 31.8 69.9 40.2 19.8 12.8 45.5 27.2 36.2-25.3-3.9-23.1-12.6-45.7-23.3-66.5zM915 314.8c-22.7 11.4-56.2 31.4-79.2 41.1-18.5-34.3-60.4-50.3-112.2-43.8-44.9 5.7-74.3 34.7-100.9 53.3-23.8 16.4-84.9 65.3-139.2 85.9-59.8 26.7-113.9 22.3-151.2 13.1-19.6-4.8-104.7-41.1-43-162.6 30.3-59.6 26.3-98.8 15-107.4-15-11.2-65.3 25.3-96.2 50.3-30.7-19.6-112-58.7-129.7-55.2-21.9 4.6-22.3 68.6 16.8 112 33.7 37.3 62.7 63 65.3 91.6 9.3 106.3 33.5 168.9 87.8 229.7 37.9 42.3 85.1 68.2 134.3 82.3 2.9-11.8 5.7-22.5 7.8-31 2.7-10.5 4.2-17.3 4.2-17.3l15.4 3.8c-9.7 37.7-30.1 114.8-37.3 132.2-9.5 23.4-19.4 53.5 31.6 36.8 86.1-28.2 154.6-104.2 182.4-195.2l12.2 1.9c-3.8 23.4-13.7 47.8-28 71.8 24-5.5 45.9-13.1 64-21.9 52.6-25.3 102.8-61.7 128.9-84 113.9-99 151.2-177.3 184.9-229.7 33.4-52.2-12.5-68.4-33.7-57.7z" p-id="2738" fill="#ffffff"></path></svg>