<?xml version="1.0" standalone="no"?><!DOCTYPE svg PUBLIC "-//W3C//DTD SVG 1.1//EN" "http://www.w3.org/Graphics/SVG/1.1/DTD/svg11.dtd"><svg t="1704362029249" class="icon" viewBox="0 0 1024 1024" version="1.1" xmlns="http://www.w3.org/2000/svg" p-id="29362" xmlns:xlink="http://www.w3.org/1999/xlink" width="200" height="200"><path d="M512 512m-512 0a512 512 0 1 0 1024 0 512 512 0 1 0-1024 0Z" fill="#38C771" p-id="29363"></path><path d="M210.368 784.416a34.112 34.112 0 0 1-34.144-34.016v-131.2c0-0.576 0.32-1.056 0.352-1.568h-0.352l61.984-349.12a35.936 35.936 0 0 1 35.072-28.096h488.544a35.904 35.904 0 0 1 35.2 28.096l61.984 349.024h-0.32c0 0.512 0.32 0.992 0.32 1.568v131.2a34.08 34.08 0 0 1-34.24 34.112z m17.056-51.2H807.68V636.16H227.424z m9.888-167.04h560.48l-48.768-274.56H286.144z m187.776 149.536v-55.04h34.144v55.2z m-78.816 0v-55.04h34.144v55.2z m-78.784 0v-55.04h34.144v55.2z m189.6-170.016h-76.064a19.008 19.008 0 1 1 0-38.016h65.92l44.416-66.496-44.416-66.56h-46.72v28.8a4.096 4.096 0 0 1-1.12 2.656 3.84 3.84 0 0 1-5.376 0l-48-48a3.808 3.808 0 0 1 0-5.376l48-47.808a3.808 3.808 0 0 1 6.4 2.656v28.8h56.96a19.2 19.2 0 0 1 16 8.512l41.056 61.952 41.184-61.824a19.2 19.2 0 0 1 16-8.48h57.024v-28.896a3.648 3.648 0 0 1 1.088-2.624 3.712 3.712 0 0 1 5.344 0l48 48a3.776 3.776 0 0 1 0 5.376l-48.064 47.552a3.648 3.648 0 0 1-2.688 1.152 3.808 3.808 0 0 1-3.808-3.84v-28.608h-46.88l-44.352 66.56 44.352 66.496h65.856a19.008 19.008 0 1 1 0 38.016H571.2a18.976 18.976 0 0 1-15.808-8.48l-41.216-61.792-41.216 61.792a18.912 18.912 0 0 1-15.776 8.48z" fill="#FFFFFF" p-id="29364"></path></svg>