<?xml version="1.0" standalone="no"?><!DOCTYPE svg PUBLIC "-//W3C//DTD SVG 1.1//EN" "http://www.w3.org/Graphics/SVG/1.1/DTD/svg11.dtd"><svg t="1704441313265" class="icon" viewBox="0 0 1024 1024" version="1.1" xmlns="http://www.w3.org/2000/svg" p-id="20623" xmlns:xlink="http://www.w3.org/1999/xlink" width="200" height="200"><path d="M512.41 956.86c-246.62 0-447.26-200.64-447.26-447.26S265.79 62.34 512.41 62.34 959.67 262.98 959.67 509.6 759.03 956.86 512.41 956.86z" fill="#e79623" p-id="20624" data-spm-anchor-id="a313x.search_index.0.i7.66633a813Y3Yx5" class="selected"></path><path d="M273.22 658.67c0 20.58 16.68 37.27 37.27 37.27s37.26-16.68 37.26-37.27c0-20.58-16.68-37.26-37.26-37.26s-37.27 16.68-37.27 37.26z m0 0M273.22 509.6c0 20.58 16.68 37.26 37.27 37.26s37.26-16.68 37.26-37.26-16.68-37.27-37.26-37.27-37.27 16.69-37.27 37.27z m0 0M440.89 379.17h292.08c10.29 0 18.63-8.34 18.63-18.63s-8.34-18.63-18.63-18.63H440.89c-10.29 0-18.63 8.34-18.63 18.63s8.34 18.63 18.63 18.63z m0 0M732.96 490.95H440.89c-10.29 0-18.63 8.34-18.63 18.63s8.34 18.63 18.63 18.63h292.08c10.29 0 18.63-8.34 18.63-18.63s-8.35-18.63-18.64-18.63z m0 149.09H440.89c-10.29 0-18.63 8.34-18.63 18.63s8.34 18.63 18.63 18.63h292.08c10.29 0 18.63-8.34 18.63-18.63s-8.35-18.63-18.64-18.63z m0 0M273.22 360.54c0 20.58 16.68 37.26 37.27 37.26s37.26-16.68 37.26-37.26-16.68-37.27-37.26-37.27-37.27 16.69-37.27 37.27z m0 0" fill="#FFFFFF" p-id="20625"></path></svg>