<?xml version="1.0" standalone="no"?><!DOCTYPE svg PUBLIC "-//W3C//DTD SVG 1.1//EN" "http://www.w3.org/Graphics/SVG/1.1/DTD/svg11.dtd"><svg t="1704332596405" class="icon" viewBox="0 0 1373 1024" version="1.1" xmlns="http://www.w3.org/2000/svg" p-id="3574" xmlns:xlink="http://www.w3.org/1999/xlink" width="268.1640625" height="200"><path d="M0 0h200.282353v256H0V0zM1173.082353 0H1373.364706v256H1173.082353V0z" fill="#111111" p-id="3575"></path><path d="M57.223529 1024h1258.917647V796.443106h-28.611764v-256h28.611764V0H57.223529v540.443106h28.611765v256H57.223529V1024z" fill="#111111" p-id="3576"></path><path d="M24.094118 24.094118h373.458823v192.752941H24.094118V24.094118z" fill="#e79623" p-id="3577" data-spm-anchor-id="a313x.search_index.0.i5.554c3a81hkIp8E" class="selected"></path><path d="M400.564706 28.443106h85.835294v170.670682H400.564706V28.431059zM972.8 28.443106h-85.835294v170.670682h85.835294V28.431059zM486.4 28.443106H572.235294v85.329318h-85.835294V28.443106zM886.964706 28.443106H801.129412v85.329318h85.835294V28.443106z" fill="#6D6E72" p-id="3578"></path><path d="M257.505882 284.443106h57.22353v512h-57.22353v-512z" fill="#000000" p-id="3579"></path><path d="M257.505882 881.772424h57.22353v56.898258h-57.22353v-56.898258z" fill="#A9A68B" p-id="3580"></path><path d="M715.294118 284.443106h57.223529v512h-57.223529v-512z" fill="#000000" p-id="3581"></path><path d="M715.294118 881.772424h57.223529v56.898258h-57.223529v-56.898258z" fill="#A9A68B" p-id="3582"></path><path d="M486.4 284.443106h57.223529v512h-57.223529v-512z" fill="#000000" p-id="3583"></path><path d="M486.4 881.772424h57.223529v56.898258h-57.223529v-56.898258z" fill="#A9A68B" p-id="3584"></path><path d="M944.188235 284.443106h57.22353v512h-57.22353v-512z" fill="#000000" p-id="3585"></path><path d="M944.188235 881.772424h57.22353v56.898258h-57.22353v-56.898258z" fill="#A9A68B" p-id="3586"></path><path d="M371.952941 284.443106h57.22353v512h-57.22353v-512z" fill="#000000" p-id="3587"></path><path d="M371.952941 881.772424h57.22353v56.898258h-57.22353v-56.898258z" fill="#A9A68B" p-id="3588"></path><path d="M829.741176 284.443106h57.22353v512h-57.22353v-512z" fill="#000000" p-id="3589"></path><path d="M829.741176 881.772424h57.22353v56.898258h-57.22353v-56.898258z" fill="#A9A68B" p-id="3590"></path><path d="M600.847059 284.443106h57.223529v512h-57.223529v-512z" fill="#000000" p-id="3591"></path><path d="M600.847059 881.772424h57.223529v56.898258h-57.223529v-56.898258z" fill="#A9A68B" p-id="3592"></path><path d="M1058.635294 284.443106h57.22353v512h-57.22353v-512z" fill="#000000" p-id="3593"></path><path d="M1058.635294 881.772424h57.22353v56.898258h-57.22353v-56.898258z" fill="#A9A68B" p-id="3594"></path><path d="M972.8 28.443106h371.952941V227.568941H972.8V28.431059z" fill="#e79623" p-id="3595" data-spm-anchor-id="a313x.search_index.0.i6.554c3a81hkIp8E" class="selected"></path></svg>