<?xml version="1.0" standalone="no"?><!DOCTYPE svg PUBLIC "-//W3C//DTD SVG 1.1//EN" "http://www.w3.org/Graphics/SVG/1.1/DTD/svg11.dtd"><svg t="1704354617508" class="icon" viewBox="0 0 1024 1024" version="1.1" xmlns="http://www.w3.org/2000/svg" p-id="5147" xmlns:xlink="http://www.w3.org/1999/xlink" width="200" height="200"><path d="M511.13377 0.391887l442.701365 255.64077V767.183569L511.13377 1022.693711 68.432405 767.183569V256.032657L511.13377 0.391887z" fill="#3EBDD3" p-id="5148"></path><path d="M511.13377 0.391887l442.701365 255.64077V767.183569L511.13377 511.542799V0.391887z" fill="#1392AD" p-id="5149"></path><path d="M511.13377 511.542799L953.835135 767.183569 510.088739 1022.693711 68.563034 767.314198l442.570736-255.771399z" fill="#17A3BA" p-id="5150"></path><path d="M416.819699 766.791683l-57.868606-86.606966h-39.188672c-35.008547 0-63.35502-28.346473-63.355019-63.355019V361.711443h-9.405282c-15.936727 0-28.738359 12.801633-28.738359 28.738359v288.428626c0 15.936727 12.801633 28.738359 28.738359 28.73836H304.870726l57.868606 86.606965h230.951907l18.288047-27.693328H416.819699v0.261258z" fill="#FFFFFF" p-id="5151"></path><path d="M781.796865 299.270825c15.936727 0 28.738359 12.801633 28.738359 28.73836v288.428626c0 15.936727-12.801633 28.738359-28.738359 28.738359h-57.868606l-57.868606 86.606966H435.630262l-57.868606-86.606966h-57.868606c-15.936727 0-28.738359-12.801633-28.738359-28.738359V328.009185c0-15.936727 12.801633-28.738359 28.738359-28.73836h461.903815z m-375.29685 86.606966h-28.738359v173.083301h28.738359V385.877791z m86.606966 0h-28.73836v173.083301h28.73836V385.877791z m86.476336 0h-28.73836v173.083301h28.73836V385.877791z m86.606965 0h-28.738359v173.083301h28.738359V385.877791z m86.606965 0h-28.738359v173.083301h28.738359V385.877791z" fill="#FFFFFF" p-id="5152"></path></svg>